<svg width="48" height="48" xmlns="http://www.w3.org/2000/svg">
 <g>
  <title>background</title>
  <rect x="-1" y="-1" width="50" height="50" id="canvas_background" fill="none"/>
 </g>
 <defs>
  <filter height="200%" width="200%" y="-50%" x="-50%" id="svg_2_blur">
   <feGaussianBlur stdDeviation="2.2" in="SourceGraphic"/>
  </filter>
  <filter height="200%" width="200%" y="-50%" x="-50%" id="svg_3_blur">
   <feGaussianBlur stdDeviation="2" in="SourceGraphic"/>
  </filter>
 </defs>
 <g>
  <title>Layer 1</title>
  <path d="m0,-0.17l48,0l0,48l-48,0l0,-48z" fill="none" id="svg_1"/>
  <path filter="url(#svg_2_blur)" d="m43.945731,23.563379c-0.92,-8.34 -7.54,-14.96 -15.88,-15.88l0,-4.12l-4,0l0,4.12c-8.34,0.92 -14.96,7.54 -15.88,15.88l-4.12,0l0,4l4.12,0c0.92,8.34 7.54,14.96 15.88,15.88l0,4.12l4,0l0,-4.12c8.34,-0.92 14.96,-7.54 15.88,-15.88l4.12,0l0,-4l-4.12,0zm-17.88,16c-7.73,0 -14,-6.27 -14,-14s6.27,-14 14,-14s14,6.27 14,14s-6.27,14 -14,14z" id="svg_2" fill="#000000"/>
  <ellipse filter="url(#svg_3_blur)" fill="#000000" stroke="#fff" stroke-width="0" cx="25.525822" cy="25.474178" id="svg_3" rx="6" ry="6"/>
  <path d="m41.88,22c-0.92,-8.34 -7.54,-14.96 -15.88,-15.88l0,-4.12l-4,0l0,4.12c-8.34,0.92 -14.96,7.54 -15.88,15.88l-4.12,0l0,4l4.12,0c0.92,8.34 7.54,14.96 15.88,15.88l0,4.12l4,0l0,-4.12c8.34,-0.92 14.96,-7.54 15.88,-15.88l4.12,0l0,-4l-4.12,0zm-17.88,16c-7.73,0 -14,-6.27 -14,-14s6.27,-14 14,-14s14,6.27 14,14s-6.27,14 -14,14z" id="svg_4" fill="#cc0000"/>
  <ellipse fill="#cc0000" stroke="#fff" stroke-width="0" cx="24" cy="24.299575" id="svg_5" rx="6" ry="6"/>
 </g>
</svg>